<?xml version="1.0" standalone="no"?>
<!DOCTYPE svg PUBLIC "-//W3C//DTD SVG 20010904//EN"
 "http://www.w3.org/TR/2001/REC-SVG-20010904/DTD/svg10.dtd">
<svg version="1.0" xmlns="http://www.w3.org/2000/svg"
 width="667.000000pt" height="667.000000pt" viewBox="0 0 667.000000 667.000000"
 preserveAspectRatio="xMidYMid meet">
<metadata>
Created by potrace 1.11, written by Peter Selinger 2001-2013
</metadata>
<g transform="translate(0.000000,667.000000) scale(0.100000,-0.100000)"
fill="#000000" stroke="none">
<path d="M3272 6214 c-82 -17 -151 -50 -164 -80 -9 -19 -5 -39 20 -106 17 -46
76 -213 132 -373 56 -159 108 -305 116 -322 10 -25 10 -33 1 -34 -7 0 -23 -2
-37 -4 -14 -1 -65 -6 -115 -9 -49 -3 -101 -8 -115 -11 -14 -3 -61 -12 -105
-20 -169 -31 -421 -122 -557 -202 -31 -18 -61 -33 -66 -33 -5 0 -13 21 -16 48
-4 26 -9 54 -11 62 -4 21 -13 69 -20 110 -3 19 -10 58 -15 85 -5 28 -11 61
-14 75 -2 14 -7 43 -11 65 -14 73 -15 80 -21 115 -3 19 -9 55 -14 80 -10 47
-15 76 -25 144 -9 59 -27 78 -78 83 -94 11 -267 -66 -378 -167 -39 -36 -79
-99 -79 -125 0 -29 9 -38 175 -180 77 -66 142 -122 145 -125 3 -3 70 -61 150
-129 80 -68 153 -132 164 -141 17 -17 15 -19 -50 -66 -334 -234 -547 -490
-714 -859 -32 -68 -76 -196 -86 -244 -3 -13 -9 -31 -13 -40 -5 -9 -13 -38 -17
-66 -4 -27 -9 -52 -9 -55 -1 -3 -5 -25 -9 -50 -5 -25 -10 -54 -12 -65 -3 -11
-7 -56 -9 -99 -3 -44 -7 -82 -9 -84 -3 -2 -31 5 -63 16 -85 30 -276 98 -293
105 -66 25 -450 160 -467 164 -29 7 -68 -19 -87 -55 -23 -44 -47 -180 -45
-251 5 -154 55 -281 112 -281 18 0 169 50 257 85 39 15 409 146 425 150 6 1
17 5 25 8 14 6 131 47 135 47 1 0 1 -28 1 -62 0 -80 12 -287 18 -296 2 -4 7
-29 10 -57 14 -103 75 -320 115 -410 10 -22 29 -65 42 -95 13 -30 36 -77 51
-103 15 -26 28 -50 28 -54 0 -10 123 -187 179 -258 107 -135 338 -346 429
-394 23 -12 23 -13 5 -29 -16 -15 -117 -100 -178 -150 -43 -36 -210 -178 -225
-192 -10 -8 -67 -57 -128 -109 -71 -59 -112 -101 -112 -113 0 -99 211 -262
385 -298 104 -22 134 -4 150 85 14 83 14 84 40 215 3 14 8 39 11 55 3 17 11
62 19 100 7 39 28 145 45 236 l32 167 92 -52 c50 -28 116 -62 146 -75 30 -13
75 -32 98 -43 74 -33 267 -88 385 -109 101 -18 219 -30 335 -33 41 -1 43 -2
37 -26 -7 -26 -136 -398 -160 -460 -57 -145 -116 -332 -110 -349 7 -23 59 -58
107 -72 99 -29 264 -31 356 -3 71 21 123 59 124 89 0 11 -43 142 -97 290 -88
245 -168 473 -182 517 -5 15 2 18 43 19 239 2 545 83 801 210 241 120 479 307
628 494 22 27 48 58 57 68 9 11 45 62 80 114 l63 94 25 -28 c14 -16 108 -127
210 -247 102 -120 195 -230 208 -245 13 -14 44 -52 70 -84 26 -32 58 -60 71
-64 81 -21 239 167 300 356 15 46 14 123 -1 144 -11 15 -64 30 -178 50 -84 16
-265 50 -325 62 -38 8 -85 16 -102 19 -85 15 -97 17 -102 20 -3 2 -26 7 -51
10 -25 4 -61 10 -81 14 l-37 7 59 120 c102 208 184 507 195 710 9 164 12 196
16 201 3 2 36 -7 74 -20 38 -14 179 -64 314 -111 286 -101 377 -133 406 -145
49 -19 105 49 124 151 20 106 18 198 -5 312 -7 34 -42 97 -64 114 -20 16 -39
12 -166 -33 -93 -33 -147 -52 -350 -124 -44 -16 -138 -49 -209 -74 -71 -26
-130 -45 -131 -44 -2 2 -6 48 -9 103 -4 55 -9 109 -11 120 -6 24 -13 61 -25
137 -21 122 -140 445 -192 520 -10 14 -18 28 -18 31 0 2 35 10 78 17 91 14
107 17 147 27 17 3 39 7 50 8 11 2 47 8 80 14 33 7 74 14 90 17 17 2 41 6 55
9 34 7 127 23 170 30 19 3 58 10 85 15 48 9 93 18 106 19 11 2 29 53 29 85 0
79 -72 241 -148 334 -80 98 -160 129 -200 78 -21 -27 -105 -125 -137 -160 -11
-12 -39 -45 -62 -73 -24 -27 -53 -61 -65 -75 -27 -30 -107 -120 -211 -241
l-76 -87 -16 29 c-29 57 -142 211 -218 300 -106 122 -208 212 -393 345 l-27
19 24 20 c13 10 40 33 60 51 20 17 54 45 75 61 20 17 42 35 48 40 6 6 45 38
86 73 41 35 93 78 115 97 22 19 86 72 141 119 56 47 104 92 107 100 15 39 -39
122 -122 187 -49 39 -163 99 -222 118 -58 18 -136 18 -155 -1 -14 -13 -52
-166 -69 -273 -2 -16 -6 -40 -9 -51 -2 -12 -7 -38 -10 -58 -3 -19 -11 -57 -17
-83 -6 -27 -13 -59 -15 -73 -3 -14 -14 -72 -25 -130 -11 -58 -22 -117 -24
-132 -6 -48 -13 -49 -73 -17 -31 18 -61 35 -67 39 -5 4 -57 28 -115 53 -156
68 -298 111 -467 142 -16 3 -39 7 -53 10 -14 3 -61 8 -105 11 -105 7 -158 11
-167 13 -9 1 -3 18 87 271 42 118 103 290 135 382 l59 168 -24 29 c-52 61
-259 95 -403 65z"/>
<path d="M1055 4993 c-133 -34 -323 -367 -275 -484 12 -28 26 -36 77 -45 16
-2 48 -9 73 -14 40 -8 203 -39 285 -54 17 -3 124 -23 240 -45 115 -22 211 -38
214 -36 2 3 -30 43 -70 91 -41 48 -103 121 -137 163 -35 42 -76 90 -90 106
-15 17 -49 57 -77 90 -27 33 -52 62 -55 65 -3 3 -29 34 -59 70 -57 69 -89 101
-100 99 -3 -1 -15 -4 -26 -6z"/>
<path d="M1530 2379 c-19 -4 -51 -11 -70 -14 -20 -3 -47 -8 -60 -10 -14 -3
-38 -8 -55 -10 -16 -3 -68 -13 -115 -21 -47 -9 -96 -18 -110 -20 -22 -4 -121
-23 -265 -50 -22 -4 -44 -8 -50 -9 -5 -1 -20 -3 -32 -3 -13 -1 -32 -11 -43
-22 -75 -75 71 -399 220 -489 64 -38 62 -39 199 115 20 22 52 60 71 84 19 24
46 55 60 70 14 15 44 49 67 76 23 27 51 60 63 74 12 14 36 42 53 63 18 21 45
53 60 70 16 18 42 49 59 70 29 37 30 37 6 36 -12 -1 -39 -5 -58 -10z"/>
<path d="M4525 1600 c4 -25 8 -52 10 -60 1 -8 6 -33 10 -55 4 -22 9 -47 10
-55 1 -8 14 -82 29 -165 15 -82 29 -159 30 -170 2 -11 7 -36 11 -55 3 -19 7
-42 9 -50 25 -151 42 -225 53 -236 40 -39 188 -8 313 66 87 51 145 102 176
156 39 67 35 74 -162 241 -27 22 -58 49 -69 60 -11 10 -49 43 -85 73 -36 30
-69 60 -75 66 -12 12 -221 192 -249 214 -18 14 -18 13 -11 -30z"/>
</g>
</svg>
